<svg xmlns="http://www.w3.org/2000/svg" viewBox="0 0 48 48">
    <path fill="#9C033A" d="M6,18v12h9v-12H6z M15,29.5V30H6v-1H15z M15,27H6v-1h9V27z M15,24H6v-1h9V24z M15,21H6v-1h9V21z M15,20v-1H6v1H15z"/>
    <path fill="#1F8BDB" d="M30,14c-7.732,0-14,6.268-14,14s6.268,14,14,14s14-6.268,14-14S37.732,14,30,14z M30,40c-6.627,0-12-5.373-12-12s5.373-12,12-12s12,5.373,12,12S36.627,40,30,40z"/>
    <path fill="#1F8BDB" d="M30,22c-3.309,0-6,2.691-6,6s2.691,6,6,6s6-2.691,6-6S33.309,22,30,22z M30,32c-2.209,0-4-1.791-4-4s1.791-4,4-4s4,1.791,4,4S32.209,32,30,32z"/>
    <polygon fill="#1F8BDB" points="41,26 34,26 34,23 32,23 32,26 25,26 25,28 32,28 32,31 34,31 34,28 41,28 "/>
</svg>